<?xml version="1.0" encoding="UTF-8" standalone="no"?><svg xmlns="http://www.w3.org/2000/svg" xmlns:xlink="http://www.w3.org/1999/xlink" contentStyleType="text/css" height="1107px" preserveAspectRatio="none" style="width:1475px;height:1107px;background:#FFFFFF;" version="1.1" viewBox="0 0 1475 1107" width="1475px" zoomAndPan="magnify"><defs/><g><rect fill="none" height="88.1094" style="stroke:#000000;stroke-width:1.5;" width="256" x="652" y="140.7754"/><rect fill="none" height="56.6211" style="stroke:#000000;stroke-width:1.5;" width="256" x="652" y="246.8848"/><rect fill="none" height="85.9316" style="stroke:#000000;stroke-width:1.5;" width="256" x="652" y="380.127"/><rect fill="none" height="85.9316" style="stroke:#000000;stroke-width:1.5;" width="256" x="652" y="530.6797"/><rect fill="none" height="85.9316" style="stroke:#000000;stroke-width:1.5;" width="256" x="652" y="751.8535"/><rect fill="none" height="85.9316" style="stroke:#000000;stroke-width:1.5;" width="256" x="652" y="902.4063"/><line style="stroke:#181818;stroke-width:0.5;stroke-dasharray:5.0,5.0;" x1="93.5" x2="93.5" y1="36.4883" y2="1070.959"/><line style="stroke:#181818;stroke-width:0.5;stroke-dasharray:5.0,5.0;" x1="449" x2="449" y1="44.4883" y2="1070.959"/><line style="stroke:#181818;stroke-width:0.5;stroke-dasharray:5.0,5.0;" x1="668" x2="668" y1="36.4883" y2="1070.959"/><line style="stroke:#181818;stroke-width:0.5;stroke-dasharray:5.0,5.0;" x1="892" x2="892" y1="168.0859" y2="1070.959"/><line style="stroke:#181818;stroke-width:0.5;stroke-dasharray:5.0,5.0;" x1="1025.5" x2="1025.5" y1="75.9766" y2="1070.959"/><line style="stroke:#181818;stroke-width:0.5;stroke-dasharray:5.0,5.0;" x1="1381" x2="1381" y1="36.4883" y2="1070.959"/><rect fill="#E2E2F0" height="30.4883" rx="2.5" ry="2.5" style="stroke:#181818;stroke-width:0.5;" width="177" x="5" y="5"/><text fill="#000000" font-family="sans-serif" font-size="14" lengthAdjust="spacing" textLength="163" x="12" y="25.5352">User program(Thread1)</text><rect fill="#E2E2F0" height="30.4883" rx="2.5" ry="2.5" style="stroke:#181818;stroke-width:0.5;" width="113" x="611.5" y="5"/><text fill="#000000" font-family="sans-serif" font-size="14" lengthAdjust="spacing" textLength="99" x="618.5" y="25.5352">internal object</text><rect fill="#E2E2F0" height="30.4883" rx="2.5" ry="2.5" style="stroke:#181818;stroke-width:0.5;" width="177" x="1292.5" y="5"/><text fill="#000000" font-family="sans-serif" font-size="14" lengthAdjust="spacing" textLength="163" x="1299.5" y="25.5352">User program(Thread2)</text><rect fill="#E2E2F0" height="30.4883" rx="2.5" ry="2.5" style="stroke:#181818;stroke-width:0.5;" width="177" x="5" y="1070.959"/><text fill="#000000" font-family="sans-serif" font-size="14" lengthAdjust="spacing" textLength="163" x="12" y="1091.4941">User program(Thread1)</text><rect fill="#E2E2F0" height="30.4883" rx="2.5" ry="2.5" style="stroke:#181818;stroke-width:0.5;" width="125" x="386.5" y="1070.959"/><text fill="#000000" font-family="sans-serif" font-size="14" lengthAdjust="spacing" textLength="111" x="393.5" y="1091.4941">execjs Context1</text><rect fill="#E2E2F0" height="30.4883" rx="2.5" ry="2.5" style="stroke:#181818;stroke-width:0.5;" width="113" x="611.5" y="1070.959"/><text fill="#000000" font-family="sans-serif" font-size="14" lengthAdjust="spacing" textLength="99" x="618.5" y="1091.4941">internal object</text><rect fill="#E2E2F0" height="30.4883" rx="2.5" ry="2.5" style="stroke:#181818;stroke-width:0.5;" width="122" x="831" y="1070.959"/><text fill="#000000" font-family="sans-serif" font-size="14" lengthAdjust="spacing" textLength="108" x="838" y="1091.4941">Node.js process</text><rect fill="#E2E2F0" height="30.4883" rx="2.5" ry="2.5" style="stroke:#181818;stroke-width:0.5;" width="125" x="963" y="1070.959"/><text fill="#000000" font-family="sans-serif" font-size="14" lengthAdjust="spacing" textLength="111" x="970" y="1091.4941">execjs Context2</text><rect fill="#E2E2F0" height="30.4883" rx="2.5" ry="2.5" style="stroke:#181818;stroke-width:0.5;" width="177" x="1292.5" y="1070.959"/><text fill="#000000" font-family="sans-serif" font-size="14" lengthAdjust="spacing" textLength="163" x="1299.5" y="1091.4941">User program(Thread2)</text><rect fill="#E2E2F0" height="30.4883" rx="2.5" ry="2.5" style="stroke:#181818;stroke-width:0.5;" width="125" x="386.5" y="44.4883"/><text fill="#000000" font-family="sans-serif" font-size="14" lengthAdjust="spacing" textLength="111" x="393.5" y="65.0234">execjs Context1</text><polygon fill="#181818" points="374.5,61.7988,384.5,65.7988,374.5,69.7988,378.5,65.7988" style="stroke:#181818;stroke-width:1.0;"/><line style="stroke:#181818;stroke-width:1.0;" x1="93.5" x2="380.5" y1="65.7988" y2="65.7988"/><text fill="#000000" font-family="sans-serif" font-size="13" lengthAdjust="spacing" textLength="269" x="100.5" y="61.0566">context1 = ExecJS.compile(initial_source1)</text><rect fill="#E2E2F0" height="30.4883" rx="2.5" ry="2.5" style="stroke:#181818;stroke-width:0.5;" width="125" x="963" y="75.9766"/><text fill="#000000" font-family="sans-serif" font-size="14" lengthAdjust="spacing" textLength="111" x="970" y="96.5117">execjs Context2</text><polygon fill="#181818" points="1099,93.2871,1089,97.2871,1099,101.2871,1095,97.2871" style="stroke:#181818;stroke-width:1.0;"/><line style="stroke:#181818;stroke-width:1.0;" x1="1093" x2="1380" y1="97.2871" y2="97.2871"/><text fill="#000000" font-family="sans-serif" font-size="13" lengthAdjust="spacing" textLength="269" x="1105" y="92.5449">context2 = ExecJS.compile(initial_source2)</text><polygon fill="#181818" points="656,124.7754,666,128.7754,656,132.7754,660,128.7754" style="stroke:#181818;stroke-width:1.0;"/><line style="stroke:#181818;stroke-width:1.0;" x1="449" x2="662" y1="128.7754" y2="128.7754"/><text fill="#000000" font-family="sans-serif" font-size="13" lengthAdjust="spacing" textLength="195" x="456" y="124.0332">Create Context(initial_source1)</text><polygon fill="#181818" points="679,124.7754,669,128.7754,679,132.7754,675,128.7754" style="stroke:#181818;stroke-width:1.0;"/><line style="stroke:#181818;stroke-width:1.0;" x1="673" x2="1024.5" y1="128.7754" y2="128.7754"/><text fill="#000000" font-family="sans-serif" font-size="13" lengthAdjust="spacing" textLength="195" x="685" y="124.0332">Create Context(initial_source2)</text><path d="M652,140.7754 L780,140.7754 L780,148.0859 L770,158.0859 L652,158.0859 L652,140.7754 " fill="#EEEEEE" style="stroke:#000000;stroke-width:1.5;"/><rect fill="none" height="88.1094" style="stroke:#000000;stroke-width:1.5;" width="256" x="652" y="140.7754"/><text fill="#000000" font-family="sans-serif" font-size="13" font-weight="bold" lengthAdjust="spacing" textLength="83" x="667" y="154.3438">synchronize</text><rect fill="#E2E2F0" height="30.4883" rx="2.5" ry="2.5" style="stroke:#181818;stroke-width:0.5;" width="122" x="831" y="168.0859"/><text fill="#000000" font-family="sans-serif" font-size="14" lengthAdjust="spacing" textLength="108" x="838" y="188.6211">Node.js process</text><polygon fill="#181818" points="819,185.3965,829,189.3965,819,193.3965,823,189.3965" style="stroke:#181818;stroke-width:1.0;"/><line style="stroke:#181818;stroke-width:1.0;" x1="668" x2="825" y1="189.3965" y2="189.3965"/><text fill="#000000" font-family="sans-serif" font-size="13" lengthAdjust="spacing" textLength="40" x="675" y="184.6543">spawn</text><polygon fill="#181818" points="880,216.8848,890,220.8848,880,224.8848,884,220.8848" style="stroke:#181818;stroke-width:1.0;"/><line style="stroke:#181818;stroke-width:1.0;" x1="668" x2="886" y1="220.8848" y2="220.8848"/><text fill="#000000" font-family="sans-serif" font-size="13" lengthAdjust="spacing" textLength="200" x="675" y="216.1426">eval(context=1, initial_source1)</text><path d="M652,246.8848 L780,246.8848 L780,254.1953 L770,264.1953 L652,264.1953 L652,246.8848 " fill="#EEEEEE" style="stroke:#000000;stroke-width:1.5;"/><rect fill="none" height="56.6211" style="stroke:#000000;stroke-width:1.5;" width="256" x="652" y="246.8848"/><text fill="#000000" font-family="sans-serif" font-size="13" font-weight="bold" lengthAdjust="spacing" textLength="83" x="667" y="260.4531">synchronize</text><polygon fill="#181818" points="880,291.5059,890,295.5059,880,299.5059,884,295.5059" style="stroke:#181818;stroke-width:1.0;"/><line style="stroke:#181818;stroke-width:1.0;" x1="668" x2="886" y1="295.5059" y2="295.5059"/><text fill="#000000" font-family="sans-serif" font-size="13" lengthAdjust="spacing" textLength="200" x="675" y="290.7637">eval(context=2, initial_source2)</text><polygon fill="#181818" points="437,334.8164,447,338.8164,437,342.8164,441,338.8164" style="stroke:#181818;stroke-width:1.0;"/><line style="stroke:#181818;stroke-width:1.0;" x1="93.5" x2="443" y1="338.8164" y2="338.8164"/><text fill="#000000" font-family="sans-serif" font-size="13" lengthAdjust="spacing" textLength="140" x="100.5" y="334.0742">context1.call(source1)</text><polygon fill="#181818" points="1036.5,334.8164,1026.5,338.8164,1036.5,342.8164,1032.5,338.8164" style="stroke:#181818;stroke-width:1.0;"/><line style="stroke:#181818;stroke-width:1.0;" x1="1030.5" x2="1380" y1="338.8164" y2="338.8164"/><text fill="#000000" font-family="sans-serif" font-size="13" lengthAdjust="spacing" textLength="140" x="1042.5" y="334.0742">context2.call(source2)</text><polygon fill="#181818" points="656,364.127,666,368.127,656,372.127,660,368.127" style="stroke:#181818;stroke-width:1.0;"/><line style="stroke:#181818;stroke-width:1.0;" x1="449" x2="662" y1="368.127" y2="368.127"/><text fill="#000000" font-family="sans-serif" font-size="13" lengthAdjust="spacing" textLength="157" x="456" y="363.3848">eval(context=1, source1)</text><polygon fill="#181818" points="679,364.127,669,368.127,679,372.127,675,368.127" style="stroke:#181818;stroke-width:1.0;"/><line style="stroke:#181818;stroke-width:1.0;" x1="673" x2="1024.5" y1="368.127" y2="368.127"/><text fill="#000000" font-family="sans-serif" font-size="13" lengthAdjust="spacing" textLength="157" x="685" y="363.3848">eval(context=2, source2)</text><path d="M652,380.127 L780,380.127 L780,387.4375 L770,397.4375 L652,397.4375 L652,380.127 " fill="#EEEEEE" style="stroke:#000000;stroke-width:1.5;"/><rect fill="none" height="85.9316" style="stroke:#000000;stroke-width:1.5;" width="256" x="652" y="380.127"/><text fill="#000000" font-family="sans-serif" font-size="13" font-weight="bold" lengthAdjust="spacing" textLength="83" x="667" y="393.6953">synchronize</text><polygon fill="#181818" points="880,424.748,890,428.748,880,432.748,884,428.748" style="stroke:#181818;stroke-width:1.0;"/><line style="stroke:#181818;stroke-width:1.0;" x1="668" x2="886" y1="428.748" y2="428.748"/><text fill="#000000" font-family="sans-serif" font-size="13" lengthAdjust="spacing" textLength="157" x="675" y="424.0059">eval(context=1, source1)</text><polygon fill="#181818" points="679,454.0586,669,458.0586,679,462.0586,675,458.0586" style="stroke:#181818;stroke-width:1.0;"/><line style="stroke:#181818;stroke-width:1.0;" x1="673" x2="891" y1="458.0586" y2="458.0586"/><text fill="#000000" font-family="sans-serif" font-size="13" lengthAdjust="spacing" textLength="81" x="685" y="453.3164">result: string</text><polygon fill="#181818" points="460,497.3691,450,501.3691,460,505.3691,456,501.3691" style="stroke:#181818;stroke-width:1.0;"/><line style="stroke:#181818;stroke-width:1.0;" x1="454" x2="667" y1="501.3691" y2="501.3691"/><text fill="#000000" font-family="sans-serif" font-size="13" lengthAdjust="spacing" textLength="118" x="466" y="496.627">result: Ruby object</text><polygon fill="#181818" points="104.5,526.6797,94.5,530.6797,104.5,534.6797,100.5,530.6797" style="stroke:#181818;stroke-width:1.0;"/><line style="stroke:#181818;stroke-width:1.0;" x1="98.5" x2="448" y1="530.6797" y2="530.6797"/><text fill="#000000" font-family="sans-serif" font-size="13" lengthAdjust="spacing" textLength="118" x="110.5" y="525.9375">result: Ruby object</text><path d="M652,530.6797 L780,530.6797 L780,537.9902 L770,547.9902 L652,547.9902 L652,530.6797 " fill="#EEEEEE" style="stroke:#000000;stroke-width:1.5;"/><rect fill="none" height="85.9316" style="stroke:#000000;stroke-width:1.5;" width="256" x="652" y="530.6797"/><text fill="#000000" font-family="sans-serif" font-size="13" font-weight="bold" lengthAdjust="spacing" textLength="83" x="667" y="544.248">synchronize</text><polygon fill="#181818" points="880,575.3008,890,579.3008,880,583.3008,884,579.3008" style="stroke:#181818;stroke-width:1.0;"/><line style="stroke:#181818;stroke-width:1.0;" x1="668" x2="886" y1="579.3008" y2="579.3008"/><text fill="#000000" font-family="sans-serif" font-size="13" lengthAdjust="spacing" textLength="157" x="675" y="574.5586">eval(context=2, source2)</text><polygon fill="#181818" points="679,604.6113,669,608.6113,679,612.6113,675,608.6113" style="stroke:#181818;stroke-width:1.0;"/><line style="stroke:#181818;stroke-width:1.0;" x1="673" x2="891" y1="608.6113" y2="608.6113"/><text fill="#000000" font-family="sans-serif" font-size="13" lengthAdjust="spacing" textLength="81" x="685" y="603.8691">result: string</text><polygon fill="#181818" points="1013.5,647.9219,1023.5,651.9219,1013.5,655.9219,1017.5,651.9219" style="stroke:#181818;stroke-width:1.0;"/><line style="stroke:#181818;stroke-width:1.0;" x1="668" x2="1019.5" y1="651.9219" y2="651.9219"/><text fill="#000000" font-family="sans-serif" font-size="13" lengthAdjust="spacing" textLength="118" x="675" y="647.1797">result: Ruby object</text><polygon fill="#181818" points="1369,677.2324,1379,681.2324,1369,685.2324,1373,681.2324" style="stroke:#181818;stroke-width:1.0;"/><line style="stroke:#181818;stroke-width:1.0;" x1="1025.5" x2="1375" y1="681.2324" y2="681.2324"/><text fill="#000000" font-family="sans-serif" font-size="13" lengthAdjust="spacing" textLength="118" x="1032.5" y="676.4902">result: Ruby object</text><polygon fill="#181818" points="437,706.543,447,710.543,437,714.543,441,710.543" style="stroke:#181818;stroke-width:1.0;"/><line style="stroke:#181818;stroke-width:1.0;" x1="93.5" x2="443" y1="710.543" y2="710.543"/><text fill="#000000" font-family="sans-serif" font-size="13" lengthAdjust="spacing" textLength="140" x="100.5" y="705.8008">context1.call(source3)</text><polygon fill="#181818" points="1036.5,706.543,1026.5,710.543,1036.5,714.543,1032.5,710.543" style="stroke:#181818;stroke-width:1.0;"/><line style="stroke:#181818;stroke-width:1.0;" x1="1030.5" x2="1380" y1="710.543" y2="710.543"/><text fill="#000000" font-family="sans-serif" font-size="13" lengthAdjust="spacing" textLength="140" x="1042.5" y="705.8008">context2.call(source4)</text><polygon fill="#181818" points="656,735.8535,666,739.8535,656,743.8535,660,739.8535" style="stroke:#181818;stroke-width:1.0;"/><line style="stroke:#181818;stroke-width:1.0;" x1="449" x2="662" y1="739.8535" y2="739.8535"/><text fill="#000000" font-family="sans-serif" font-size="13" lengthAdjust="spacing" textLength="157" x="456" y="735.1113">eval(context=1, source3)</text><polygon fill="#181818" points="679,735.8535,669,739.8535,679,743.8535,675,739.8535" style="stroke:#181818;stroke-width:1.0;"/><line style="stroke:#181818;stroke-width:1.0;" x1="673" x2="1024.5" y1="739.8535" y2="739.8535"/><text fill="#000000" font-family="sans-serif" font-size="13" lengthAdjust="spacing" textLength="157" x="685" y="735.1113">eval(context=2, source4)</text><path d="M652,751.8535 L780,751.8535 L780,759.1641 L770,769.1641 L652,769.1641 L652,751.8535 " fill="#EEEEEE" style="stroke:#000000;stroke-width:1.5;"/><rect fill="none" height="85.9316" style="stroke:#000000;stroke-width:1.5;" width="256" x="652" y="751.8535"/><text fill="#000000" font-family="sans-serif" font-size="13" font-weight="bold" lengthAdjust="spacing" textLength="83" x="667" y="765.4219">synchronize</text><polygon fill="#181818" points="880,796.4746,890,800.4746,880,804.4746,884,800.4746" style="stroke:#181818;stroke-width:1.0;"/><line style="stroke:#181818;stroke-width:1.0;" x1="668" x2="886" y1="800.4746" y2="800.4746"/><text fill="#000000" font-family="sans-serif" font-size="13" lengthAdjust="spacing" textLength="157" x="675" y="795.7324">eval(context=2, source4)</text><polygon fill="#181818" points="679,825.7852,669,829.7852,679,833.7852,675,829.7852" style="stroke:#181818;stroke-width:1.0;"/><line style="stroke:#181818;stroke-width:1.0;" x1="673" x2="891" y1="829.7852" y2="829.7852"/><text fill="#000000" font-family="sans-serif" font-size="13" lengthAdjust="spacing" textLength="81" x="685" y="825.043">result: string</text><polygon fill="#181818" points="1013.5,869.0957,1023.5,873.0957,1013.5,877.0957,1017.5,873.0957" style="stroke:#181818;stroke-width:1.0;"/><line style="stroke:#181818;stroke-width:1.0;" x1="668" x2="1019.5" y1="873.0957" y2="873.0957"/><text fill="#000000" font-family="sans-serif" font-size="13" lengthAdjust="spacing" textLength="118" x="675" y="868.3535">result: Ruby object</text><polygon fill="#181818" points="1369,898.4063,1379,902.4063,1369,906.4063,1373,902.4063" style="stroke:#181818;stroke-width:1.0;"/><line style="stroke:#181818;stroke-width:1.0;" x1="1025.5" x2="1375" y1="902.4063" y2="902.4063"/><text fill="#000000" font-family="sans-serif" font-size="13" lengthAdjust="spacing" textLength="118" x="1032.5" y="897.6641">result: Ruby object</text><path d="M652,902.4063 L780,902.4063 L780,909.7168 L770,919.7168 L652,919.7168 L652,902.4063 " fill="#EEEEEE" style="stroke:#000000;stroke-width:1.5;"/><rect fill="none" height="85.9316" style="stroke:#000000;stroke-width:1.5;" width="256" x="652" y="902.4063"/><text fill="#000000" font-family="sans-serif" font-size="13" font-weight="bold" lengthAdjust="spacing" textLength="83" x="667" y="915.9746">synchronize</text><polygon fill="#181818" points="880,947.0273,890,951.0273,880,955.0273,884,951.0273" style="stroke:#181818;stroke-width:1.0;"/><line style="stroke:#181818;stroke-width:1.0;" x1="668" x2="886" y1="951.0273" y2="951.0273"/><text fill="#000000" font-family="sans-serif" font-size="13" lengthAdjust="spacing" textLength="157" x="675" y="946.2852">eval(context=1, source3)</text><polygon fill="#181818" points="679,976.3379,669,980.3379,679,984.3379,675,980.3379" style="stroke:#181818;stroke-width:1.0;"/><line style="stroke:#181818;stroke-width:1.0;" x1="673" x2="891" y1="980.3379" y2="980.3379"/><text fill="#000000" font-family="sans-serif" font-size="13" lengthAdjust="spacing" textLength="81" x="685" y="975.5957">result: string</text><polygon fill="#181818" points="460,1019.6484,450,1023.6484,460,1027.6484,456,1023.6484" style="stroke:#181818;stroke-width:1.0;"/><line style="stroke:#181818;stroke-width:1.0;" x1="454" x2="667" y1="1023.6484" y2="1023.6484"/><text fill="#000000" font-family="sans-serif" font-size="13" lengthAdjust="spacing" textLength="118" x="466" y="1018.9063">result: Ruby object</text><polygon fill="#181818" points="104.5,1048.959,94.5,1052.959,104.5,1056.959,100.5,1052.959" style="stroke:#181818;stroke-width:1.0;"/><line style="stroke:#181818;stroke-width:1.0;" x1="98.5" x2="448" y1="1052.959" y2="1052.959"/><text fill="#000000" font-family="sans-serif" font-size="13" lengthAdjust="spacing" textLength="118" x="110.5" y="1048.2168">result: Ruby object</text><!--MD5=[8231295b6a95a226c222b426b1af1829]
@startuml

!pragma teoz true

participant "User program(Thread1)" as ruby1
participant "execjs Context1" as context1
participant "internal object" as vm
participant "Node.js process" as node
participant "execjs Context2" as context2
participant "User program(Thread2)" as ruby2

create context1
ruby1 -> context1 : context1 = ExecJS.compile(initial_source1)
create context2
ruby2 -> context2 : context2 = ExecJS.compile(initial_source2)
context1 -> vm : Create Context(initial_source1)
& context2 -> vm : Create Context(initial_source2)
create node
group synchronize
    vm -> node : spawn
    vm -> node : eval(context=1, initial_source1)
end
group synchronize
    vm -> node : eval(context=2, initial_source2)
end

ruby1 -> context1 : context1.call(source1)
& ruby2 -> context2 : context2.call(source2)
context1 -> vm : eval(context=1, source1)
& context2 -> vm : eval(context=2, source2)
group synchronize
    vm -> node : eval(context=1, source1)
    node -> vm : result: string
end
vm -> context1 : result: Ruby object
context1 -> ruby1 : result: Ruby object
& group synchronize
    vm -> node : eval(context=2, source2)
    node -> vm : result: string
end
vm -> context2 : result: Ruby object
context2 -> ruby2 : result: Ruby object

ruby1 -> context1 : context1.call(source3)
& ruby2 -> context2 : context2.call(source4)
context1 -> vm : eval(context=1, source3)
& context2 -> vm : eval(context=2, source4)
group synchronize
    vm -> node : eval(context=2, source4)
    node -> vm : result: string
end
vm -> context2 : result: Ruby object
context2 -> ruby2 : result: Ruby object
& group synchronize
    vm -> node : eval(context=1, source3)
    node -> vm : result: string
end
vm -> context1 : result: Ruby object
context1 -> ruby1 : result: Ruby object
@enduml

PlantUML version 1.2022.7(Tue Aug 23 02:01:30 JST 2022)
(GPL source distribution)
Java Runtime: Java(TM) SE Runtime Environment
JVM: Java HotSpot(TM) 64-Bit Server VM
Default Encoding: UTF-8
Language: ja
Country: JP
--></g></svg>